#N canvas 827 239 527 327 12;
#X obj 527 155 mtof;
#X msg 1074 191 harmonics \$1;
#X msg 594 197 model \$1;
#X obj 480 115 notein 1;
#X obj 707 498 / 200;
#X obj 594 566 *~;
#X obj 650 638 giga.rev~;
#X obj 707 462 ctlin 7;
#X obj 30 29 ctlin 4;
#X obj 30 88 sel 0 1 2;
#X obj 184 162 s chords;
#X obj 747 155 6;
#X obj 747 115 r chords;
#X obj 594 417 plaits~;
#X obj 594 770 dac~;
#X obj 594 671 *~ 1;
#X obj 650 671 *~ 1;
#X obj 594 716 +~;
#X obj 120 162 s voice;
#X obj 680 115 r voice;
#X obj 1074 96 ctlin 5;
#X obj 1074 127 / 100;
#X obj 1186 96 ctlin 6;
#X obj 680 155 7;
#X obj 30 162 s resonator;
#X obj 594 115 r resonator;
#X obj 594 462 lores~ 3000 0;
#X obj 594 155 12;
#X obj 480 152 bng 25 250 50 0 empty empty empty 17 7 0 10 #e4e4e4 #4d4d4d #373737;
#X msg 1186 191 timbre \$1;
#X obj 971 115 r chords;
#X obj 904 115 r voice;
#X obj 818 115 r resonator;
#X obj 818 155 1;
#X obj 904 155 0;
#X msg 818 197 trigger \$1;
#X msg 1104 327 decay \$1;
#X obj 1186 127 / 100;
#X obj 1882 141 hsl 77 25 0 1 0 0 empty empty empty -2 -8 0 10 #e4e4e4 #4d4d4d #373737 0 1;
#X obj 1296 56 r resonator;
#X obj 1289 155 spigot;
#X msg 1289 191 morph \$1;
#X obj 1456 56 r chords;
#X obj 1389 56 r voice;
#X obj 1338 115 0;
#X obj 1389 115 0.5;
#X obj 1296 115 1;
#X obj 1456 115 0.58;
#X obj 650 604 hip~ 150;
#X connect 0 0 13 0;
#X connect 1 0 13 0;
#X connect 2 0 13 0;
#X connect 3 0 0 0;
#X connect 3 0 28 0;
#X connect 4 0 5 1;
#X connect 5 0 15 0;
#X connect 5 0 48 0;
#X connect 6 0 16 0;
#X connect 7 0 4 0;
#X connect 8 0 9 0;
#X connect 9 0 24 0;
#X connect 9 1 18 0;
#X connect 9 2 10 0;
#X connect 11 0 2 0;
#X connect 12 0 11 0;
#X connect 13 0 26 0;
#X connect 15 0 17 0;
#X connect 16 0 17 1;
#X connect 17 0 14 0;
#X connect 17 0 14 1;
#X connect 19 0 23 0;
#X connect 20 0 21 0;
#X connect 21 0 1 0;
#X connect 22 0 37 0;
#X connect 23 0 2 0;
#X connect 25 0 27 0;
#X connect 26 0 5 0;
#X connect 27 0 2 0;
#X connect 28 0 13 0;
#X connect 29 0 13 0;
#X connect 30 0 34 0;
#X connect 31 0 34 0;
#X connect 32 0 33 0;
#X connect 33 0 35 0;
#X connect 34 0 35 0;
#X connect 35 0 13 0;
#X connect 36 0 13 0;
#X connect 37 0 29 0;
#X connect 37 0 36 0;
#X connect 37 0 40 0;
#X connect 39 0 46 0;
#X connect 40 0 41 0;
#X connect 41 0 13 0;
#X connect 42 0 44 0;
#X connect 42 0 47 0;
#X connect 43 0 44 0;
#X connect 43 0 45 0;
#X connect 44 0 40 1;
#X connect 45 0 41 0;
#X connect 46 0 40 1;
#X connect 47 0 41 0;
#X connect 48 0 6 0;
